<?xml version="1.0" encoding="utf-8"?>
<!-- Generator: Adobe Illustrator 17.0.0, SVG Export Plug-In . SVG Version: 6.00 Build 0)  -->
<!DOCTYPE svg PUBLIC "-//W3C//DTD SVG 1.1//EN" "http://www.w3.org/Graphics/SVG/1.1/DTD/svg11.dtd">
<svg version="1.1" id="Layer_1" xmlns="http://www.w3.org/2000/svg" xmlns:xlink="http://www.w3.org/1999/xlink" x="0px" y="0px"
	 width="201.5px" height="43px" viewBox="0 0 201.5 43" style="enable-background:new 0 0 201.5 43;" xml:space="preserve">
<style type="text/css">
	.st0{fill:#565656;}
	.st1{fill:#8DC642;}
</style>
<g>
	<path class="st0" d="M37.6,14.5c-0.3-1.6-0.8-3.2-1.5-4.7c-0.9-2-2.1-3.8-3.8-5.4c-1.8-1.8-3.8-3.1-6-4.1c-2.5-1-5.2,0.8-5.2,3.5
		v0.6c0,1.5,0.8,2.9,2.1,3.4c3.4,1.5,5.9,4.6,6.5,8.4c0.1,0.5,0.1,1,0.1,1.6c0,3-1.2,5.7-3.2,7.7L15.9,36.2c-1.5,1.5-1.5,3.8,0,5.3
		l0.4,0.4c1.5,1.5,3.8,1.5,5.3,0l10.8-10.8C36.9,26.6,38.7,20.4,37.6,14.5"/>
	<path class="st1" d="M11.4,25.6l-0.3-0.3c-1.9-1.9-3.1-4.6-3.1-7.5c0-4.4,2.6-8.2,6.3-9.9c1.4-0.6,2.4-1.9,2.4-3.5V3.8
		c0-2.7-2.7-4.5-5.2-3.5c-2.2,0.9-4.2,2.3-6,4c-2.9,2.8-4.6,6.4-5.3,10.1C0.1,15.5,0,16.7,0,17.8c0,4.8,1.8,9.7,5.6,13.4l1.9,1.9
		c1.5,1.5,3.8,1.5,5.3,0l0.5-0.4c1.5-1.5,1.5-3.8,0-5.3L11.4,25.6z"/>
</g>
<g>
	<path class="st1" d="M50.8,28.6c0.4-1.2,1.7-1.8,2.9-1.3c0,0,0,0,0,0c0.7,0.3,1.5,0.5,2.3,0.7c0.8,0.2,1.6,0.4,2.5,0.5
		c0.8,0.1,1.7,0.2,2.5,0.2c0.9,0,1.8-0.1,2.6-0.2c0.8-0.2,1.5-0.4,2.1-0.7c0.6-0.3,1.1-0.8,1.4-1.3c0.3-0.5,0.5-1.1,0.5-1.9
		c0-0.6-0.1-1.2-0.4-1.6c-0.3-0.5-0.7-0.9-1.2-1.2c-0.5-0.3-1.1-0.6-1.9-0.8c-0.7-0.2-1.5-0.5-2.4-0.7l-2.6-0.6
		c-2.8-0.7-5-1.8-6.4-3.4c-1.4-1.6-2.1-3.5-2.1-5.8c0-1.2,0.3-2.4,0.8-3.4c0.5-1,1.3-1.9,2.3-2.7c1-0.8,2.2-1.3,3.6-1.7
		c1.4-0.4,2.9-0.6,4.6-0.6c1,0,2,0.1,3,0.2c1,0.1,2,0.3,2.9,0.6c0.9,0.3,1.8,0.5,2.7,0.9l0,0c1.3,0.5,1.9,1.9,1.3,3.2l-0.2,0.4
		c-0.5,1.2-1.9,1.8-3.1,1.3c-0.6-0.3-1.3-0.5-2-0.7c-1.6-0.4-3.1-0.7-4.6-0.7c-0.7,0-1.4,0.1-2.1,0.2C59.1,7.5,58.5,7.7,58,8
		c-0.5,0.3-0.9,0.6-1.2,1.1c-0.3,0.4-0.4,0.9-0.4,1.5c0,1,0.4,1.8,1.2,2.4c0.8,0.6,2,1.1,3.8,1.6l2.6,0.7c1.3,0.3,2.5,0.8,3.7,1.3
		c1.2,0.5,2.2,1.1,3,1.9c0.9,0.8,1.6,1.7,2.1,2.7c0.5,1,0.8,2.3,0.8,3.6c0,1.5-0.3,2.8-0.9,4c-0.6,1.1-1.5,2.1-2.6,2.9
		c-1.1,0.8-2.4,1.4-3.9,1.8c-1.5,0.4-3.1,0.6-4.9,0.6c-1.1,0-2.1-0.1-3.2-0.2c-1.1-0.1-2.1-0.3-3.1-0.6c-1-0.2-1.9-0.5-2.8-0.9
		c0,0,0,0,0,0c-1.3-0.5-1.9-2-1.3-3.2L50.8,28.6z"/>
	<path class="st1" d="M87.7,34c-1.4,0-2.6-0.1-3.9-0.4c-1.2-0.3-2.3-0.7-3.3-1.2c-0.9-0.6-1.7-1.3-2.2-2.2c-0.6-0.9-0.8-2-0.8-3.3
		c0-1.2,0.2-2.3,0.7-3.2c0.5-0.9,1.2-1.7,2.1-2.3c0.9-0.6,1.9-1.1,3.2-1.4c1.2-0.3,2.6-0.5,4-0.5c0.6,0,1.2,0,1.9,0.1
		c0.7,0,1.5,0.1,2.3,0.2v-0.3c0-1.2-0.5-2.1-1.4-2.5c-0.9-0.4-2.1-0.7-3.6-0.7c-0.6,0-1.2,0.1-1.8,0.2c-0.7,0.1-1.3,0.2-2,0.4
		c-0.7,0.2-1.3,0.4-2,0.6c-1.4,0.4-2.6-1-2.1-2.4l0.3-0.8c0.5-1.1,1.4-2,2.5-2.3c0.5-0.1,1-0.3,1.5-0.4c1.4-0.3,2.8-0.5,4.3-0.5
		c1.4,0,2.7,0.2,3.8,0.5c1.2,0.3,2.2,0.8,3,1.5c0.9,0.7,1.5,1.5,2,2.6c0.5,1.1,0.7,2.4,0.7,4v8.3c0,2.6-1.9,5-4.5,5.4c0,0,0,0,0,0
		C90.9,33.8,89.3,34,87.7,34 M91.7,24.2c-0.5-0.1-1.1-0.2-1.8-0.3c-0.7-0.1-1.3-0.1-1.9-0.1c-0.7,0-1.3,0-1.9,0.1
		c-0.6,0.1-1.1,0.2-1.6,0.5c-0.5,0.2-0.8,0.5-1.1,0.9c-0.3,0.4-0.4,0.8-0.4,1.3c0,0.9,0.6,1.8,1.4,2.1c0.9,0.4,2,0.6,3.3,0.6
		c0.7,0,1.3-0.1,2-0.2c0.4-0.1,0.8-0.1,1.2-0.2c0.4-0.1,0.7-0.5,0.7-0.9V24.2z"/>
	<path class="st1" d="M105.2,12h0.5c1.3,0,2.4,1.1,2.4,2.4v16.7c0,1.3-1.1,2.4-2.4,2.4h-0.5c-1.3,0-2.4-1.1-2.4-2.4V14.4
		C102.8,13.1,103.9,12,105.2,12 M107.4,7.7c-0.5,0.4-1.2,0.6-2,0.6c-0.8,0-1.4-0.2-2-0.6c-0.5-0.4-0.8-1.1-0.8-1.9
		c0-0.8,0.3-1.4,0.8-1.8c0.5-0.5,1.2-0.7,2-0.7c0.8,0,1.4,0.2,2,0.7c0.5,0.5,0.8,1.1,0.8,1.8C108.2,6.6,108,7.2,107.4,7.7"/>
	<g>
		<path class="st0" d="M145.2,35.6c-0.8,0-1.4,0.2-2,0.7c-0.5,0.5-0.8,1.1-0.8,1.8c0,0.8,0.3,1.5,0.8,1.9c0.5,0.4,1.2,0.6,2,0.6
			c0.8,0,1.4-0.2,2-0.6c0.5-0.4,0.8-1.1,0.8-1.9c0-0.8-0.3-1.4-0.8-1.8C146.7,35.8,146,35.6,145.2,35.6z"/>
		<path class="st0" d="M137.5,35.6c-0.8,0-1.4,0.2-2,0.7c-0.5,0.5-0.8,1.1-0.8,1.8c0,0.8,0.3,1.5,0.8,1.9c0.5,0.4,1.2,0.6,2,0.6
			c0.8,0,1.4-0.2,2-0.6c0.5-0.4,0.8-1.1,0.8-1.9c0-0.8-0.3-1.4-0.8-1.8C138.9,35.8,138.3,35.6,137.5,35.6z"/>
		<path class="st0" d="M198.6,8.5h-0.4c-1.3,0-2.7,1.4-2.7,2.7v12c0,1.5-0.3,2.7-1,3.5c-0.8,0.9-1.9,1.3-3.4,1.3
			c-1.5,0-2.5-0.4-3.3-1.3c-0.9-0.8-1.2-2.1-1.2-3.9v-7c0-1.3-1.3-2.3-2.6-2.3h-0.5c-1.3,0-2.9,0.9-2.9,2.3v7c0,0.9,0.1,1.7-0.2,2.3
			c-0.3,0.6-0.6,1.1-1.1,1.5c-0.5,0.4-1,0.6-1.6,0.7c-0.6,0.1-1.1,0.1-1.7,0.1h-3.4V15.7c0-1.3-1.6-2.3-2.9-2.3h-0.5
			c-1.3,0-2.6,0.9-2.6,2.3v11.7h-7.9l0,0h-6.1V13.8c0-1.3-1.5-2.4-2.9-2.4h-0.5c-1.3,0-2.6,1-2.6,2.4v13.6h-9.4
			c0.9-2,1.2-4.6,0.8-6.9c-0.2-1-0.5-2.1-1-3c-0.6-1.3-1.4-2.5-2.4-3.5c-1.2-1.2-2.3-2-3.7-2.6c-1.6-0.7-3.2,0.5-3.2,2.3V14
			c0,1,0.3,1.9,1.2,2.2c2.2,1,3.7,3,4.1,5.5c0,0.3,0,0.7,0,1c0,2-0.8,3.7-2.1,5l-7,7c-1,1-1,2.5,0,3.4l0.3,0.3
			c0.9,1,2.5,0.7,3.4-0.2l5.6-5.8h25.3h0.8h16.5c1.5,0,3.1,0,4.5-0.6c1.3-0.6,2.5-1.3,3.4-2.3c0.4,0.7,0.9,1.4,1.5,1.8
			c0.6,0.5,1.2,0.9,1.9,1.2c0.7,0.3,1.3,0.5,2.1,0.6c0.7,0.1,1.4,0.2,2.2,0.2c3.3,0,6-0.9,7.7-2.7c1.6-1.8,2.7-4.5,2.7-8.2V11.2
			C201.5,9.8,199.9,8.5,198.6,8.5z"/>
	</g>
	<path class="st1" d="M120.8,28.3l-0.2-0.2c-1.2-1.3-2-3-2-4.9c0-2.9,1.7-5.3,4.1-6.4c0.9-0.4,1.5-1.3,1.5-2.3v-0.4
		c0-1.7-1.8-2.9-3.4-2.2c-1.4,0.6-2.8,1.5-3.9,2.6c-1.9,1.9-3,4.2-3.4,6.6c-0.1,0.7-0.2,1.4-0.2,2.2c0,3.2,1.2,6.3,3.6,8.7l1.3,1.3
		c1,0.9,2.5,0.9,3.4,0l0.3-0.3c0.9-0.9,1-2.5,0-3.4L120.8,28.3z"/>
</g>
</svg>
