<svg id="Capa_1" enable-background="new 0 0 510 510" height="512" viewBox="0 0 510 510" width="512" xmlns="http://www.w3.org/2000/svg" xmlns:xlink="http://www.w3.org/1999/xlink"><linearGradient id="lg1"><stop offset="0" stop-color="#ffe548"/><stop offset=".1758" stop-color="#ffde50"/><stop offset=".4446" stop-color="#ffca65"/><stop offset=".7709" stop-color="#ffaa87"/><stop offset="1" stop-color="#ff90a4"/></linearGradient><linearGradient id="SVGID_1_" gradientTransform="matrix(.707 .707 -.707 .707 221.786 -119.384)" gradientUnits="userSpaceOnUse" x1="190.369" x2="422.686" xlink:href="#lg1" y1="382.951" y2="446.094"/><linearGradient id="SVGID_2_" gradientTransform="matrix(.707 .707 -.707 .707 221.786 -119.384)" gradientUnits="userSpaceOnUse" x1="328.152" x2="212.619" xlink:href="#lg1" y1="416.924" y2="416.924"/><linearGradient id="SVGID_3_" gradientTransform="matrix(.707 .707 -.707 .707 221.786 -119.384)" gradientUnits="userSpaceOnUse" x1="269.673" x2="313.94" xlink:href="#lg1" y1="409.381" y2="409.381"/><linearGradient id="SVGID_4_" gradientTransform="matrix(.707 .707 -.707 .707 221.786 -119.384)" gradientUnits="userSpaceOnUse" x1="389.283" x2="264.473" y1="366.562" y2="241.751"><stop offset="0" stop-color="#fba5c2" stop-opacity="0"/><stop offset=".3857" stop-color="#fca0ba" stop-opacity=".386"/><stop offset=".9737" stop-color="#ff91a5" stop-opacity=".974"/><stop offset="1" stop-color="#ff90a4"/></linearGradient><linearGradient id="lg2"><stop offset="0" stop-color="#4f4a72"/><stop offset="1" stop-color="#3b395f"/></linearGradient><linearGradient id="SVGID_5_" gradientTransform="matrix(.707 .707 -.707 .707 221.786 -119.384)" gradientUnits="userSpaceOnUse" x1="189.782" x2="366.309" xlink:href="#lg2" y1="43.375" y2="193.155"/><linearGradient id="SVGID_6_" gradientTransform="matrix(-.707 -.707 .707 -.707 482.72 340.931)" gradientUnits="userSpaceOnUse" x1="168.697" x2="263.903" xlink:href="#lg2" y1="-1.123" y2="79.658"/><linearGradient id="SVGID_7_" gradientTransform="matrix(.707 .707 -.707 .707 221.786 -119.384)" gradientUnits="userSpaceOnUse" x1="370.612" x2="283.857" y1="179.458" y2="92.703"><stop offset="0" stop-color="#3b395f" stop-opacity="0"/><stop offset="1" stop-color="#3b395f"/></linearGradient><linearGradient id="SVGID_8_" gradientTransform="matrix(.707 .707 -.707 .707 237.814 -135.412)" gradientUnits="userSpaceOnUse" x1="251.796" x2="317.109" xlink:href="#lg2" y1="88.827" y2="144.245"/><linearGradient id="SVGID_9_" gradientTransform="matrix(-.707 -.707 .707 -.707 287.783 418.546)" gradientUnits="userSpaceOnUse" x1="169.455" x2="212.538" xlink:href="#lg2" y1="92.919" y2="136.002"/><linearGradient id="SVGID_10_" gradientTransform="matrix(.707 .707 -.707 .707 221.786 -119.384)" gradientUnits="userSpaceOnUse" x1="235.139" x2="268.834" y1="218.341" y2="252.036"><stop offset="0" stop-color="#ff4974"/><stop offset=".2231" stop-color="#fb3f6c"/><stop offset=".6075" stop-color="#f12357"/><stop offset="1" stop-color="#e4003d"/></linearGradient><linearGradient id="SVGID_11_" gradientTransform="matrix(-.707 -.707 .707 -.707 287.783 418.546)" gradientUnits="userSpaceOnUse" x1="83.005" x2="126.088" xlink:href="#lg2" y1="92.919" y2="136.002"/><linearGradient id="SVGID_12_" gradientTransform="matrix(.707 .707 -.707 .707 221.786 -119.384)" gradientUnits="userSpaceOnUse" x1="321.589" x2="355.284" y1="218.341" y2="252.036"><stop offset="0" stop-color="#c4f8b6"/><stop offset="1" stop-color="#3b8eac"/></linearGradient><linearGradient id="SVGID_13_" gradientTransform="matrix(.707 .707 -.707 .707 221.786 -119.384)" gradientUnits="userSpaceOnUse" x1="274.662" x2="318.364" y1="89.283" y2="132.985"><stop offset="0" stop-color="#d4f7ff"/><stop offset="1" stop-color="#a2e3e9"/></linearGradient><path d="m133.19 447.469c4.648 0 8.416-3.768 8.416-8.416 0-4.648 3.768-8.416 8.416-8.416 4.648 0 8.416-3.768 8.416-8.416 0-4.648 3.768-8.416 8.416-8.416h6.786c2.232 0 4.373-.887 5.951-2.465l116.041-116.041-80.932-80.932-116.039 116.04c-1.578 1.578-2.465 3.719-2.465 5.951v6.786c0 4.648-3.768 8.416-8.416 8.416-4.648 0-8.416 3.768-8.416 8.416 0 4.648-3.768 8.416-8.416 8.416-4.648 0-8.416 3.768-8.416 8.416 0 4.648-3.768 8.416-8.416 8.416h-6.786c-2.232 0-4.373.887-5.951 2.465l-27.138 27.138c-6.234 6.234-10.016 14.502-10.655 23.295l-3.526 48.511c-.963 13.25 10.056 24.269 23.306 23.306l48.511-3.526c8.792-.639 17.061-4.421 23.295-10.654l27.139-27.139c1.578-1.578 2.465-3.719 2.465-5.951v-6.786c-.002-4.646 3.766-8.414 8.414-8.414z" fill="url(#SVGID_1_)"/><path d="m57.73 492.269-39.193 12.845c-10.705 3.508-17.159-2.946-13.65-13.65l12.845-39.193c2.328-7.103 7.039-14.443 13.273-20.676l200.463-200.463 47.402 47.402-200.464 200.462c-6.234 6.233-13.573 10.945-20.676 13.273z" fill="url(#SVGID_2_)"/><path d="m53.939 470.528-29.379 19.849c-8.024 5.421-10.359 3.087-4.937-4.937l19.848-29.379c3.597-5.325 8.822-11.5 14.719-17.397l192.405-192.405 17.145 17.145-192.404 192.406c-5.897 5.896-12.072 11.121-17.397 14.718z" fill="url(#SVGID_3_)"/><path d="m180.071 248.997v161.864l115.563-115.563-80.932-80.932z" fill="url(#SVGID_4_)"/><path d="m482.24 89.888-62.128-62.128c-37.013-37.013-97.006-37.013-134.02 0l-96.619 96.619c-37.005 37.005-37.014 97.006 0 134.02l62.128 62.128c37.013 37.013 97.015 37.005 134.02 0l96.619-96.619c37.013-37.013 37.013-97.006 0-134.02zm-37.909 9.221c-2.256 0-4.494-.861-6.208-2.574l-24.659-24.659c-3.427-3.427-3.435-8.98-.009-12.407 1.713-1.713 3.961-2.566 6.199-2.566 2.256 0 4.494.861 6.207 2.574l24.659 24.659c3.427 3.427 3.435 8.98.009 12.407-1.712 1.714-3.959 2.566-6.198 2.566z" fill="url(#SVGID_5_)"/><path d="m395.918 76.714 37.369 37.369c22.258 22.258 22.258 58.346 0 80.605l-34.696 34.696c-22.258 22.258-58.346 22.258-80.605 0l-37.369-37.369c-22.258-22.258-22.258-58.346 0-80.605l34.696-34.696c22.258-22.259 58.346-22.259 80.605 0z" fill="url(#SVGID_6_)"/><path d="m293.242 344.813c31.832 8.816 67.363.737 92.387-24.287l35.033-35.033v-128.753c.772-10.911-3.001-22.083-11.343-30.424l-25.636-25.636c-15.27-15.27-40.027-15.27-55.296 0l-23.802 23.802c-8.341 8.341-12.115 19.513-11.343 30.424z" fill="url(#SVGID_7_)"/><path d="m330.221 205.415-25.636-25.636c-15.27-15.27-15.27-40.027 0-55.296l23.802-23.802c15.27-15.27 40.027-15.27 55.296 0l25.636 25.636c15.27 15.27 15.27 40.027 0 55.296l-23.802 23.802c-15.27 15.27-40.027 15.27-55.296 0z" fill="url(#SVGID_8_)"/><circle cx="233.664" cy="215.207" fill="url(#SVGID_9_)" r="30.847"/><circle cx="233.664" cy="215.207" fill="url(#SVGID_10_)" r="24.125"/><circle cx="294.793" cy="276.336" fill="url(#SVGID_11_)" r="30.847"/><circle cx="294.793" cy="276.336" fill="url(#SVGID_12_)" r="24.125"/><path d="m371.254 161.276-18.769-18.769 6.926-6.926c4.138-4.138 10.871-4.138 15.009 0s4.138 10.871 0 15.009c-1.081 1.081-1.081 2.833 0 3.914s2.833 1.081 3.914 0c6.296-6.296 6.296-16.54 0-22.836s-16.54-6.296-22.836 0l-6.93 6.93c-2.173-2.011-5.566-1.962-7.678.15l-16.583 16.583c-2.164 2.164-2.164 5.672 0 7.835l22.529 22.529c2.164 2.164 5.672 2.164 7.835 0l16.583-16.583c2.163-2.165 2.163-5.673 0-7.836zm-22.395 3.508c-.921-.133-1.848.206-2.506.864l-1.313 1.313c-.559.559-1.468.552-2.019-.019-.541-.561-.499-1.464.052-2.015l1.246-1.246c.675-.675 1.022-1.624.893-2.57-.19-1.384.294-2.842 1.451-3.846 1.605-1.391 4.031-1.388 5.633.006 1.902 1.656 1.977 4.545.224 6.298-.998.997-2.364 1.402-3.661 1.215z" fill="url(#SVGID_13_)"/></svg>