<svg height="512" viewBox="0 0 512 512" width="512" xmlns="http://www.w3.org/2000/svg" xmlns:xlink="http://www.w3.org/1999/xlink"><linearGradient id="New_Gradient_Swatch_5" gradientUnits="userSpaceOnUse" x1="354.015" x2="417.985" y1="417.985" y2="354.015"><stop offset=".011" stop-color="#f8c73f"/><stop offset="1" stop-color="#fada7f"/></linearGradient><linearGradient id="New_Gradient_Swatch_11" gradientUnits="userSpaceOnUse" x1="58.419" x2="325.581" y1="325.581" y2="58.419"><stop offset=".011" stop-color="#60c6be"/><stop offset="1" stop-color="#80d1cb"/></linearGradient><linearGradient id="New_Gradient_Swatch_22" gradientUnits="userSpaceOnUse" x1="90.224" x2="293.776" y1="293.776" y2="90.224"><stop offset=".011" stop-color="#dcdce3"/><stop offset="1" stop-color="#ededf1"/></linearGradient><linearGradient id="New_Gradient_Swatch_13" gradientUnits="userSpaceOnUse" x1="131.432" x2="252.568" y1="238.966" y2="117.83"><stop offset="0" stop-color="#d46669"/><stop offset="1" stop-color="#dd888a"/></linearGradient><linearGradient id="New_Gradient_Swatch_22-2" x1="163.729" x2="220.271" xlink:href="#New_Gradient_Swatch_22" y1="204.271" y2="147.729"/><g id="_02-search" data-name="02-search"><g id="gradient"><path d="m502.52 447.813a24.1 24.1 0 0 0 -8.019-17.227l-172.373-153.686a12 12 0 0 0 -16.471.472l-28.284 28.284a12 12 0 0 0 -.472 16.471l153.685 172.373a24.1 24.1 0 0 0 17.227 8.019c.227.006.452.009.678.009a24.105 24.105 0 0 0 16.98-7.029l30.029-30.028a24.1 24.1 0 0 0 7.02-17.658z" fill="url(#New_Gradient_Swatch_5)"/><circle cx="192" cy="192" fill="url(#New_Gradient_Swatch_11)" r="189"/><circle cx="192" cy="192" fill="url(#New_Gradient_Swatch_22)" r="144"/><path d="m192 92a84.1 84.1 0 0 0 -84 84c0 22.962 13.148 49.214 39.081 78.027a323.174 323.174 0 0 0 37.552 35.445 12 12 0 0 0 14.734 0 323.174 323.174 0 0 0 37.552-35.445c25.933-28.813 39.081-55.065 39.081-78.027a84.1 84.1 0 0 0 -84-84z" fill="url(#New_Gradient_Swatch_13)"/><circle cx="192" cy="176" fill="url(#New_Gradient_Swatch_22-2)" r="40"/></g></g></svg>