<svg id="Capa_1" enable-background="new 0 0 510 510" height="512" viewBox="0 0 510 510" width="512" xmlns="http://www.w3.org/2000/svg" xmlns:xlink="http://www.w3.org/1999/xlink"><linearGradient id="lg1"><stop offset="0" stop-color="#4f4a72"/><stop offset="1" stop-color="#3b395f"/></linearGradient><linearGradient id="SVGID_1_" gradientUnits="userSpaceOnUse" x1="337.072" x2="354.041" xlink:href="#lg1" y1="103.339" y2="177.203"/><linearGradient id="lg2"><stop offset="0" stop-color="#d4f7ff"/><stop offset="1" stop-color="#a2e3e9"/></linearGradient><linearGradient id="SVGID_2_" gradientUnits="userSpaceOnUse" x1="244.651" x2="295.317" xlink:href="#lg2" y1="237.652" y2="394.985"/><linearGradient id="SVGID_3_" gradientUnits="userSpaceOnUse" x1="163.578" x2="227.578" xlink:href="#lg2" y1="264.526" y2="371.859"/><linearGradient id="SVGID_4_" gradientUnits="userSpaceOnUse" x1="69.139" x2="112.472" xlink:href="#lg2" y1="259.72" y2="337.053"/><linearGradient id="SVGID_5_" gradientUnits="userSpaceOnUse" x1="318.215" x2="371.548" xlink:href="#lg2" y1="221.112" y2="305.112"/><linearGradient id="lg3"><stop offset="0" stop-color="#a34a9e" stop-opacity="0"/><stop offset="1" stop-color="#343168"/></linearGradient><linearGradient id="SVGID_6_" gradientUnits="userSpaceOnUse" x1="117.99" x2="117.99" xlink:href="#lg3" y1="267.703" y2="501.78"/><linearGradient id="SVGID_7_" gradientUnits="userSpaceOnUse" x1="392.01" x2="392.01" xlink:href="#lg3" y1="267.703" y2="501.78"/><linearGradient id="SVGID_8_" gradientUnits="userSpaceOnUse" x1="253.617" x2="253.617" xlink:href="#lg1" y1="320.546" y2="352.241"/><linearGradient id="lg4"><stop offset="0" stop-color="#a34a9e"/><stop offset=".1551" stop-color="#9b489a"/><stop offset=".4019" stop-color="#84438f"/><stop offset=".7073" stop-color="#5e3b7d"/><stop offset="1" stop-color="#343168"/></linearGradient><radialGradient id="SVGID_9_" cx="110.537" cy="325.533" gradientUnits="userSpaceOnUse" r="66.476" xlink:href="#lg4"/><linearGradient id="lg5"><stop offset="0" stop-color="#a34a9e"/><stop offset="1" stop-color="#343168"/></linearGradient><linearGradient id="SVGID_10_" gradientTransform="matrix(-1 0 0 -1 510 -548.5)" gradientUnits="userSpaceOnUse" x1="352.397" x2="425.787" xlink:href="#lg5" y1="-929.083" y2="-855.693"/><linearGradient id="SVGID_11_" gradientUnits="userSpaceOnUse" x1="81.994" x2="148.681" xlink:href="#lg2" y1="304.974" y2="371.661"/><linearGradient id="SVGID_12_" gradientTransform="matrix(-1 0 0 -1 510 -548.5)" gradientUnits="userSpaceOnUse" x1="371.095" x2="409.845" xlink:href="#lg2" y1="-910.385" y2="-871.635"/><linearGradient id="lg6"><stop offset="0" stop-color="#a2e3e9" stop-opacity="0"/><stop offset="1" stop-color="#518cd2"/></linearGradient><linearGradient id="SVGID_13_" gradientUnits="userSpaceOnUse" x1="144.692" x2="114.635" xlink:href="#lg6" y1="367.672" y2="337.615"/><linearGradient id="SVGID_14_" gradientUnits="userSpaceOnUse" x1="115.86" x2="126.679" xlink:href="#lg1" y1="338.84" y2="349.659"/><linearGradient id="SVGID_15_" gradientUnits="userSpaceOnUse" x1="116.082" x2="120.564" xlink:href="#lg1" y1="314.355" y2="318.837"/><linearGradient id="SVGID_16_" gradientUnits="userSpaceOnUse" x1="116.082" x2="120.564" xlink:href="#lg1" y1="363.769" y2="368.251"/><linearGradient id="SVGID_17_" gradientTransform="matrix(0 1 -1 0 -19.25 -529.25)" gradientUnits="userSpaceOnUse" x1="868.312" x2="872.794" xlink:href="#lg1" y1="-163.853" y2="-159.371"/><linearGradient id="SVGID_18_" gradientTransform="matrix(0 1 -1 0 -19.25 -529.25)" gradientUnits="userSpaceOnUse" x1="868.312" x2="872.794" xlink:href="#lg1" y1="-114.44" y2="-109.958"/><linearGradient id="SVGID_19_" gradientTransform="matrix(.707 .707 -.707 .707 -119.242 -260.726)" gradientUnits="userSpaceOnUse" x1="591.309" x2="595.791" xlink:href="#lg1" y1="231.103" y2="235.586"/><linearGradient id="SVGID_20_" gradientTransform="matrix(.707 .707 -.707 .707 -119.242 -260.726)" gradientUnits="userSpaceOnUse" x1="591.309" x2="595.791" xlink:href="#lg1" y1="280.517" y2="285"/><linearGradient id="SVGID_21_" gradientTransform="matrix(-.707 .707 .707 .707 629.242 -260.726)" gradientUnits="userSpaceOnUse" x1="785.073" x2="789.555" xlink:href="#lg1" y1="37.339" y2="41.821"/><linearGradient id="SVGID_22_" gradientTransform="matrix(-.707 .707 .707 .707 629.242 -260.726)" gradientUnits="userSpaceOnUse" x1="785.073" x2="789.555" xlink:href="#lg1" y1="86.753" y2="91.235"/><radialGradient id="SVGID_23_" cx="384.559" cy="325.533" gradientUnits="userSpaceOnUse" r="66.476" xlink:href="#lg4"/><linearGradient id="SVGID_24_" gradientTransform="matrix(-1 0 0 -1 510 -548.5)" gradientUnits="userSpaceOnUse" x1="78.376" x2="151.766" xlink:href="#lg5" y1="-929.083" y2="-855.693"/><linearGradient id="SVGID_25_" gradientUnits="userSpaceOnUse" x1="356.015" x2="422.703" xlink:href="#lg2" y1="304.974" y2="371.661"/><linearGradient id="SVGID_26_" gradientTransform="matrix(-1 0 0 -1 510 -548.5)" gradientUnits="userSpaceOnUse" x1="97.073" x2="135.823" xlink:href="#lg2" y1="-910.385" y2="-871.635"/><linearGradient id="SVGID_27_" gradientUnits="userSpaceOnUse" x1="418.714" x2="388.656" xlink:href="#lg6" y1="367.672" y2="337.615"/><linearGradient id="SVGID_28_" gradientUnits="userSpaceOnUse" x1="389.882" x2="400.701" xlink:href="#lg1" y1="338.84" y2="349.659"/><linearGradient id="SVGID_29_" gradientUnits="userSpaceOnUse" x1="390.103" x2="394.586" xlink:href="#lg1" y1="314.355" y2="318.837"/><linearGradient id="SVGID_30_" gradientUnits="userSpaceOnUse" x1="390.103" x2="394.586" xlink:href="#lg1" y1="363.769" y2="368.251"/><linearGradient id="SVGID_31_" gradientTransform="matrix(0 1 -1 0 -19.25 -529.25)" gradientUnits="userSpaceOnUse" x1="868.312" x2="872.794" xlink:href="#lg1" y1="-437.875" y2="-433.393"/><linearGradient id="SVGID_32_" gradientTransform="matrix(0 1 -1 0 -19.25 -529.25)" gradientUnits="userSpaceOnUse" x1="868.312" x2="872.794" xlink:href="#lg1" y1="-388.461" y2="-383.979"/><linearGradient id="SVGID_33_" gradientTransform="matrix(.707 .707 -.707 .707 -119.242 -260.726)" gradientUnits="userSpaceOnUse" x1="785.073" x2="789.555" xlink:href="#lg1" y1="37.339" y2="41.821"/><linearGradient id="SVGID_34_" gradientTransform="matrix(.707 .707 -.707 .707 -119.242 -260.726)" gradientUnits="userSpaceOnUse" x1="785.073" x2="789.555" xlink:href="#lg1" y1="86.753" y2="91.235"/><linearGradient id="SVGID_35_" gradientTransform="matrix(-.707 .707 .707 .707 629.242 -260.726)" gradientUnits="userSpaceOnUse" x1="591.309" x2="595.791" xlink:href="#lg1" y1="231.103" y2="235.586"/><linearGradient id="SVGID_36_" gradientTransform="matrix(-.707 .707 .707 .707 629.242 -260.726)" gradientUnits="userSpaceOnUse" x1="591.309" x2="595.791" xlink:href="#lg1" y1="280.517" y2="285"/><linearGradient id="lg7"><stop offset="0" stop-color="#ffe548"/><stop offset=".1758" stop-color="#ffde50"/><stop offset=".4446" stop-color="#ffca65"/><stop offset=".7709" stop-color="#ffaa87"/><stop offset="1" stop-color="#ff90a4"/></linearGradient><linearGradient id="SVGID_37_" gradientUnits="userSpaceOnUse" x1="28.957" x2="33.722" xlink:href="#lg7" y1="259.828" y2="300.168"/><linearGradient id="SVGID_38_" gradientUnits="userSpaceOnUse" x1="458.748" x2="491.834" y1="254.476" y2="294.302"><stop offset="0" stop-color="#ff4974"/><stop offset=".2231" stop-color="#fb3f6c"/><stop offset=".6075" stop-color="#f12357"/><stop offset="1" stop-color="#e4003d"/></linearGradient><linearGradient id="SVGID_39_" gradientUnits="userSpaceOnUse" x1="464.82" x2="487.67" xlink:href="#lg7" y1="275.37" y2="302.874"/><linearGradient id="SVGID_40_" gradientUnits="userSpaceOnUse" x1="29.385" x2="29.385" xlink:href="#lg1" y1="289.351" y2="332.945"/><linearGradient id="SVGID_41_" gradientUnits="userSpaceOnUse" x1="480.615" x2="480.615" xlink:href="#lg1" y1="306.388" y2="337.712"/><linearGradient id="SVGID_42_" gradientUnits="userSpaceOnUse" x1="258.976" x2="271.643" xlink:href="#lg2" y1="198.396" y2="303.062"/><linearGradient id="SVGID_43_" gradientUnits="userSpaceOnUse" x1="415.922" x2="435.381" xlink:href="#lg1" y1="154.62" y2="239.327"/><linearGradient id="SVGID_44_" gradientUnits="userSpaceOnUse" x1="212.548" x2="230.045" xlink:href="#lg1" y1="162.454" y2="238.614"/><linearGradient id="SVGID_45_" gradientUnits="userSpaceOnUse" x1="320.591" x2="339.934" xlink:href="#lg1" y1="153.798" y2="237.993"/><linearGradient id="SVGID_46_" gradientTransform="matrix(-1 0 0 -1 509.662 500.5)" gradientUnits="userSpaceOnUse" x1="254.829" x2="256.104" xlink:href="#lg1" y1="250.231" y2="260.771"/><linearGradient id="SVGID_47_" gradientTransform="matrix(-1 0 0 -1 509.662 500.5)" gradientUnits="userSpaceOnUse" x1="157.979" x2="159.255" xlink:href="#lg1" y1="250.231" y2="260.771"/><linearGradient id="SVGID_48_" gradientUnits="userSpaceOnUse" x1="200.419" x2="-4.581" xlink:href="#lg3" y1="262.197" y2="172.697"/><linearGradient id="SVGID_49_" gradientUnits="userSpaceOnUse" x1="154.948" x2="154.948" xlink:href="#lg1" y1="203.964" y2="230.632"/><path d="m452.709 154.536h-207.751l15.324-23.977c6.013-9.407 16.268-15.023 27.432-15.023h122.24c11.165 0 21.419 5.616 27.431 15.023zm-187.667-11h167.582l-4.508-7.053c-3.981-6.229-10.771-9.947-18.163-9.947h-122.24c-7.392 0-14.182 3.719-18.163 9.947z" fill="url(#SVGID_1_)"/><path d="m475.603 155.201 12.85 54.278c.809 3.415 1.217 6.912 1.217 10.422v121.069h-469.34v-72.377c0-3.26.46-6.48 1.35-9.58.9-3.1 2.22-6.08 3.96-8.83 13.92-22.13 38.22-35.56 64.37-35.56h48.19l33.931-46.916c14.991-20.729 39.019-33.004 64.6-33.004h212.954c12.346 0 23.074 8.484 25.918 20.498z" fill="url(#SVGID_2_)"/><path d="m275 134.703v206.27h-254.67v-72.38c0-3.26.46-6.48 1.35-9.58.9-3.1 2.22-6.08 3.96-8.83 13.92-22.13 38.22-35.56 64.37-35.56h48.19l33.93-46.92c14.99-20.72 39.02-33 64.6-33z" fill="url(#SVGID_3_)"/><path d="m25.64 250.179c-3.467 5.514-5.307 11.896-5.307 18.41v72.38h117.866v-126.35h-48.194c-26.141 0-50.449 13.43-64.365 35.56z" fill="url(#SVGID_4_)"/><path d="m366.655 258.889c4.51-.587 7.885-4.429 7.885-8.977v-115.209h-99.54v193.467h34l17.876-39.742c7.234-16.083 22.291-27.264 39.779-29.539z" fill="url(#SVGID_5_)"/><path d="m191.99 340.966h-148c0-40.87 33.13-74 74-74 7 0 13.78.97 20.21 2.8 31.05 8.79 53.79 37.34 53.79 71.2z" fill="url(#SVGID_6_)"/><path d="m466.01 340.966h-148c0-40.87 33.13-74 74-74 7 0 13.78.97 20.21 2.8 31.05 8.79 53.79 37.34 53.79 71.2z" fill="url(#SVGID_7_)"/><path d="m46.234 318.851h414.766v25.028h-414.766z" fill="url(#SVGID_8_)"/><circle cx="117.989" cy="340.969" fill="url(#SVGID_9_)" r="53.494"/><circle cx="117.989" cy="340.969" fill="url(#SVGID_10_)" r="34.598"/><circle cx="117.989" cy="340.969" fill="url(#SVGID_11_)" r="31.439"/><circle cx="117.989" cy="340.969" fill="url(#SVGID_12_)" r="18.268"/><path d="m146.243 354.765-20.543-20.543c-1.88-2.146-4.633-3.508-7.71-3.508-5.664 0-10.256 4.592-10.256 10.256 0 3.077 1.362 5.831 3.508 7.71l20.543 20.543c6.281-3.073 11.385-8.177 14.458-14.458z" fill="url(#SVGID_13_)"/><circle cx="117.989" cy="340.969" fill="url(#SVGID_14_)" r="10.256"/><circle cx="117.989" cy="316.263" fill="url(#SVGID_15_)" r="3.637"/><circle cx="117.989" cy="365.676" fill="url(#SVGID_16_)" r="3.637"/><circle cx="142.696" cy="340.969" fill="url(#SVGID_17_)" r="3.637"/><circle cx="93.283" cy="340.969" fill="url(#SVGID_18_)" r="3.637"/><circle cx="135.46" cy="323.499" fill="url(#SVGID_19_)" r="3.637"/><circle cx="100.519" cy="358.44" fill="url(#SVGID_20_)" r="3.637"/><circle cx="100.519" cy="323.499" fill="url(#SVGID_21_)" r="3.637"/><circle cx="135.46" cy="358.44" fill="url(#SVGID_22_)" r="3.637"/><circle cx="392.011" cy="340.969" fill="url(#SVGID_23_)" r="53.494"/><circle cx="392.011" cy="340.969" fill="url(#SVGID_24_)" r="34.598"/><circle cx="392.011" cy="340.969" fill="url(#SVGID_25_)" r="31.439"/><circle cx="392.011" cy="340.969" fill="url(#SVGID_26_)" r="18.268"/><path d="m420.264 354.765-20.543-20.543c-1.88-2.146-4.633-3.508-7.71-3.508-5.664 0-10.256 4.592-10.256 10.256 0 3.077 1.362 5.831 3.508 7.71l20.543 20.543c6.281-3.073 11.385-8.177 14.458-14.458z" fill="url(#SVGID_27_)"/><circle cx="392.011" cy="340.969" fill="url(#SVGID_28_)" r="10.256"/><circle cx="392.011" cy="316.263" fill="url(#SVGID_29_)" r="3.637"/><circle cx="392.011" cy="365.676" fill="url(#SVGID_30_)" r="3.637"/><circle cx="416.717" cy="340.969" fill="url(#SVGID_31_)" r="3.637"/><circle cx="367.304" cy="340.969" fill="url(#SVGID_32_)" r="3.637"/><circle cx="409.481" cy="323.499" fill="url(#SVGID_33_)" r="3.637"/><circle cx="374.54" cy="358.44" fill="url(#SVGID_34_)" r="3.637"/><circle cx="374.54" cy="323.499" fill="url(#SVGID_35_)" r="3.637"/><circle cx="409.481" cy="358.44" fill="url(#SVGID_36_)" r="3.637"/><path d="m42.968 293.039v-20.192c0-5.687-4.61-10.297-10.297-10.297h-11.785c-.353 1.987-.553 4.005-.553 6.04v24.45h22.635z" fill="url(#SVGID_37_)"/><path d="m489.667 247.991h-8.62c-5.687 0-10.297 4.61-10.297 10.297v54.338h18.917z" fill="url(#SVGID_38_)"/><path d="m489.667 275.16h-16.164c-1.514 0-2.753 1.239-2.753 2.753v34.713h18.917z" fill="url(#SVGID_39_)"/><path d="m45.142 349.883h-31.515c-7.526 0-13.627-6.101-13.627-13.627v-33.183c0-7.526 6.101-13.627 13.627-13.627h31.515c7.526 0 13.627 6.101 13.627 13.627v33.183c.001 7.526-6.101 13.627-13.627 13.627z" fill="url(#SVGID_40_)"/><path d="m496.373 349.883h-31.515c-7.526 0-13.627-6.101-13.627-13.627v-16.172c0-7.526 6.101-13.627 13.627-13.627h31.515c7.526 0 13.627 6.101 13.627 13.627v16.172c0 7.526-6.101 13.627-13.627 13.627z" fill="url(#SVGID_41_)"/><path d="m475.603 155.201c-2.844-12.014-13.572-20.498-25.918-20.498h-212.954c-25.581 0-49.609 12.276-64.6 33.004l-33.931 46.916h-48.19c-20.846 0-40.509 8.541-54.683 23.213h454.343v-17.936c0-3.509-.408-7.007-1.217-10.422z" fill="url(#SVGID_42_)"/><path d="m395.863 215.62h62.393c6.45 0 11.276-5.919 9.977-12.237l-9.161-44.545c-.974-4.736-5.142-8.134-9.977-8.134h-53.232c-5.625 0-10.186 4.56-10.186 10.186v44.545c.001 5.625 4.561 10.185 10.186 10.185z" fill="url(#SVGID_43_)"/><path d="m257.81 150.704h-21.629c-18.775 0-36.496 8.674-48.014 23.501l-19.405 24.981c-5.198 6.691-.429 16.434 8.044 16.434h81.004c5.625 0 10.186-4.56 10.186-10.186v-44.545c0-5.625-4.561-10.185-10.186-10.185z" fill="url(#SVGID_44_)"/><path d="m297.184 215.62h60.306c5.625 0 10.186-4.56 10.186-10.186v-44.545c0-5.625-4.56-10.186-10.186-10.186h-60.306c-5.625 0-10.186 4.56-10.186 10.186v44.545c0 5.626 4.56 10.186 10.186 10.186z" fill="url(#SVGID_45_)"/><path d="m247.5 244.417h14.662c3.222 0 5.833 2.612 5.833 5.833 0 3.222-2.612 5.833-5.833 5.833h-14.662c-3.222 0-5.833-2.612-5.833-5.833 0-3.222 2.611-5.833 5.833-5.833z" fill="url(#SVGID_46_)"/><path d="m344.35 244.417h14.662c3.222 0 5.833 2.612 5.833 5.833 0 3.222-2.612 5.833-5.833 5.833h-14.662c-3.222 0-5.833-2.612-5.833-5.833-.001-3.222 2.611-5.833 5.833-5.833z" fill="url(#SVGID_47_)"/><path d="m163.466 205.635c-.472-1.495-1.853-2.586-3.503-2.586-7.577 0-13.72 6.143-13.72 13.72v4.28c0 4.4 2.08 8.307 5.301 10.817l90.182 90.182h38.154z" fill="url(#SVGID_48_)"/><path d="m159.963 234.77c-7.577 0-13.72-6.143-13.72-13.72v-4.28c0-7.577 6.143-13.72 13.72-13.72 2.038 0 3.69 1.652 3.69 3.69v24.339c0 2.038-1.652 3.691-3.69 3.691z" fill="url(#SVGID_49_)"/></svg>