<svg id="Flat" height="512" viewBox="0 0 512 512" width="512" xmlns="http://www.w3.org/2000/svg"><path d="m62.627 233.373-38.627 38.627v112a16 16 0 0 0 16 16h432a16 16 0 0 0 16-16v-112l-38.627-38.627a32 32 0 0 0 -22.628-9.373h-341.49a32 32 0 0 0 -22.628 9.373z" fill="#ffb632"/><path d="m342.03 96h-172.06a64 64 0 0 0 -62.089 48.478l-19.881 79.522h336l-19.881-79.522a64 64 0 0 0 -62.089-48.478z" fill="#eba72e"/><path d="m343.015 128h-174.03a32 32 0 0 0 -31.045 24.239l-17.94 71.761h272l-17.94-71.761a32 32 0 0 0 -31.045-24.239z" fill="#7e8589"/><path d="m40 400h96a0 0 0 0 1 0 0v48a16 16 0 0 1 -16 16h-64a16 16 0 0 1 -16-16v-48a0 0 0 0 1 0 0z" fill="#596063"/><path d="m317.766 320h-123.532a32 32 0 0 0 -31.379 25.724l-10.855 54.276h208l-10.855-54.276a32 32 0 0 0 -31.379-25.724z" fill="#596063"/><path d="m200 320h112v48h-112z" fill="#e9eef2"/><path d="m56 288h80a0 0 0 0 1 0 0v32a16 16 0 0 1 -16 16h-48a16 16 0 0 1 -16-16v-32a0 0 0 0 1 0 0z" fill="#ffd33a"/><path d="m376 288h80a0 0 0 0 1 0 0v32a16 16 0 0 1 -16 16h-48a16 16 0 0 1 -16-16v-32a0 0 0 0 1 0 0z" fill="#ffd33a"/><path d="m64 400h16v64h-16z" fill="#464c4f"/><path d="m96 400h16v64h-16z" fill="#464c4f"/><path d="m376 400h96a0 0 0 0 1 0 0v48a16 16 0 0 1 -16 16h-64a16 16 0 0 1 -16-16v-48a0 0 0 0 1 0 0z" fill="#596063"/><path d="m400 400h16v64h-16z" fill="#464c4f"/><path d="m432 400h16v64h-16z" fill="#464c4f"/><g fill="#eba72e"><path d="m136 288h240v32h-240z"/><path d="m24 304 32 16v-32l-32-16z"/><path d="m488 304-32 16v-32l32-16z"/></g><path d="m40 176h16a32 32 0 0 1 32 32v16a0 0 0 0 1 0 0h-48a16 16 0 0 1 -16-16v-16a16 16 0 0 1 16-16z" fill="#ffb632"/><path d="m456 176h16a16 16 0 0 1 16 16v16a16 16 0 0 1 -16 16h-48a0 0 0 0 1 0 0v-16a32 32 0 0 1 32-32z" fill="#ffb632"/><path d="m72 368h48v32h-48z" fill="#ffd33a"/><path d="m392 368h48v32h-48z" fill="#ffd33a"/><path d="m320 48h-128l-16 48h160z" fill="#ffb632"/></svg>